<svg width="32" height="32" viewBox="0 0 32 32" fill="none" xmlns="http://www.w3.org/2000/svg">
<rect width="32" height="32" rx="7" fill="#007DFF"/>
<path d="M24.7055 12.9418H20.089C20.0275 12.4678 19.9013 12.04 19.7105 11.6584C19.5197 11.2768 19.2673 10.9505 18.9534 10.6797C18.6395 10.4089 18.2671 10.2027 17.8362 10.0611C17.4115 9.91335 16.9406 9.83949 16.4236 9.83949C15.5064 9.83949 14.7155 10.0642 14.0507 10.5135C13.3921 10.9628 12.8843 11.6122 12.5273 12.4616C12.1764 13.3111 12.001 14.339 12.001 15.5455C12.001 16.8011 12.1795 17.8537 12.5365 18.7031C12.8997 19.5464 13.4075 20.1835 14.0599 20.6143C14.7185 21.0391 15.4972 21.2514 16.3959 21.2514C16.9006 21.2514 17.3592 21.1868 17.7716 21.0575C18.1901 20.9283 18.5564 20.7405 18.8703 20.4943C19.1904 20.242 19.452 19.9373 19.6551 19.5803C19.8644 19.2171 20.009 18.8078 20.089 18.3523L24.7055 18.38C24.6255 19.2171 24.3824 20.0419 23.9761 20.8544C23.576 21.6669 23.0251 22.4086 22.3234 23.0795C21.6217 23.7443 20.7661 24.2737 19.7567 24.6676C18.7533 25.0616 17.6023 25.2585 16.3035 25.2585C14.5924 25.2585 13.0597 24.883 11.7055 24.1321C10.3575 23.375 9.29264 22.2732 8.51092 20.8267C7.7292 19.3802 7.33833 17.6198 7.33833 15.5455C7.33833 13.465 7.73535 11.7015 8.52939 10.255C9.32342 8.80848 10.3975 7.70975 11.7517 6.95881C13.1059 6.20786 14.6231 5.83239 16.3035 5.83239C17.4484 5.83239 18.5071 5.99242 19.4797 6.3125C20.4522 6.62642 21.3078 7.08807 22.0464 7.69744C22.7851 8.30066 23.3852 9.04238 23.8469 9.92259C24.3085 10.8028 24.5947 11.8092 24.7055 12.9418Z" fill="black"/>
</svg>
