<svg width="72" height="72" fill="none" xmlns="http://www.w3.org/2000/svg"><rect width="72" height="72" rx="8" fill="#F7F7F8"/><path d="M40.3 57a22 22 0 11-.8-43.7 25 25 0 012.6.5 22 22 0 011.8 42.4" fill="#fff"/><path d="M40.1 55.9a21.4 21.4 0 01-18-6 20.8 20.8 0 010-29.5A21 21 0 0158 34.3 20.9 20.9 0 0143.6 55a1.2 1.2 0 00.7 2.3 23.2 23.2 0 00-3.3-45l-1.4-.2L37 12a23.5 23.5 0 00-23.4 23.2A23.1 23.1 0 0037 58.5l3.6-.3A1.2 1.2 0 0040 56z" fill="#000"/><path d="M25.4 18.4h-15c-1.4 0-2.4 1-2.4 2.4V28c0 1.3 1 2.4 2.3 2.4h15c1.4 0 2.4-1 2.4-2.4v-7.3c0-1.3-1-2.4-2.3-2.4z" fill="#005CFF"/><path d="M14.4 27.5l-1.3-1.8-.8-1.2.8-1.3 1.3-1.8.2-.5a.3.3 0 00-.3-.2h-1.5a.4.4 0 00-.4.1L10.1 24c-.2.3-.2.5.1 1a138 138 0 002.6 3.3h1.5a.3.3 0 00.4-.2l-.2-.5-.1-.1zm6.9-6l1.3 1.8.9 1.2-.9 1.2-1.3 1.8-.2.6a.3.3 0 00.3.2H23a.4.4 0 00.3-.2l2.3-3.2c.2-.3.2-.5 0-1l-2.3-3a.4.4 0 00-.3-.2h-1.7a.3.3 0 00-.3.2l.2.5h.1zm-.7-.9h-1.4a.4.4 0 00-.5.3l-3.6 6.7-.1.4s0 .3.3.3h1.3a.5.5 0 00.4-.3c.8-1.4 3.3-6 3.7-7 .1-.1.1-.4-.1-.4z" fill="#fff"/><path d="M30.3 13.5a500.2 500.2 0 00-1.3 6.7 3 3 0 001.1 2.3c.8.6 1.9.5 2.6 1 .8.7.9 1.8.9 2.7 0 1 .1 2.4-.7 2.8-.8.5-1.7.3-2.5.6-.9.3-1.6.8-2.1 1.6-.3.4-.4 1-.3 1.4 0 .2-.2.6.2.2l-.5.1a3.6 3.6 0 00-2.4 1.5 3.7 3.7 0 001 5 4 4 0 002.6 1c1 .1 2.2 0 3 .5.9.5.5 1.5.8 2.2a2.6 2.6 0 002.3 1.3c1 0 1.4.2 1.4 1.3 0 1-.5 2.1-1.3 3-.9.8-1.5 1.8-1.9 2.9-.4 1.3-.7 2.6-.9 4-.3 1.5 2.1 2.2 2.4.6l.7-3.3c.4-1.1 1-2 1.8-2.9a6.6 6.6 0 001.6-5.3c-.1-.8-.5-1.5-1-2a3 3 0 00-1.1-.6c-.5-.1-1.1 0-1.5-.2-.4-.2-.3-.4-.4-1 0-.3-.2-.7-.4-1a4 4 0 00-2.3-1.6c-1.2-.4-5.2.1-5-2 .2-.9 1-.9 1.6-1a2.2 2.2 0 001.8-2c0-.5-.2-.8.2-1.2l1-.3c1 0 2-.4 2.9-.9 1.7-1.2 1.6-3.9 1.4-5.7a4.8 4.8 0 00-3.8-4.4c-.6-.2-.7-.3-.7-.9l.3-1.6.8-4c.4-1.7-2-2.4-2.3-.8z" fill="#000"/><path d="M14.8 33.2c1.3.7 2.6 1.6 3.8 2.6.6.6.5 1.6.7 2.4a4 4 0 002 2.8c1 .7 2 1 2.8 2 .6 1 1 2.3 1.2 3.5.7 2.9 1 5.8 1.8 8.7.4 1.6 2.8.9 2.4-.7-.8-3-1.2-6.1-2-9.1-.2-1.3-.7-2.5-1.3-3.7-.7-1-1.8-2-3-2.5a3 3 0 01-1.3-.9c-.3-.6-.4-1.3-.4-2 0-.9-.6-1.8-1.3-2.4a28 28 0 00-4.2-3c-1.4-.6-2.6 1.6-1.2 2.3zm33.7-15.7l-.7 3.5c0 .6-.2 1.2-.4 1.8-.3.5-.8.6-1.3.8-1.4.6-4.6 1.9-4 4 0 .3.3.6.5.8.3.3.9.5 1 .9.3.6-.9 1.1-1.2 1.6-.9 1.6.3 3.6 1.9 4.1 2.2.9 4.3-.8 6-2 .3-.1 1.4-1 1.6-1-.5 0 0 .5 0 .7a2.2 2.2 0 01-1 2.3c-1.9 1.3-4.4.9-6.6 1.4-2.1.4-2.3 2.5-2 4.4.2 2.2 1.2 3.8 3.4 4.5a2.7 2.7 0 012 1.6c.4 1 .5 2 .4 3-.2 1.6 2.3 1.6 2.5 0 .2-1.8-.2-3.6-1.2-5.1a4.6 4.6 0 00-2-1.6c-.8-.3-1.8-.3-2.3-1.2-.3-.7-.5-1.4-.4-2.2v-.7c0-.3-.1-.2.3-.3.6-.2 1.3-.3 2-.3 2-.2 4.1-.5 5.8-1.9a4.6 4.6 0 001.5-4.8c-.3-.8-.9-1.5-1.6-2-1.1-.5-2 0-3 .7-.8.6-1.8 1.3-2.9 1.8-.3.2-2.2 1-2.2 0 0-.3.4-.5.7-.7l.6-1a3 3 0 00-.2-2.7l-1-.9-.3-.3c0 .6.1.7.5.4l.3-.2c1-.7 2.3-1 3.3-1.7a4 4 0 001.5-2.7l.9-4.3c.3-1.6-2-2.3-2.4-.7z" fill="#000"/><path d="M59.7 48h-15c-1.3 0-2.4 1-2.4 2.3v7.4c0 1.3 1 2.3 2.4 2.3h15c1.3 0 2.3-1 2.3-2.3v-7.4c0-1.3-1-2.3-2.3-2.3z" fill="#005CFF"/><path d="M48.7 57l-1.3-1.8-.8-1.2.8-1.2 1.3-1.8.3-.6a.3.3 0 00-.3-.2H47a.4.4 0 00-.3.2l-2.3 3.2c-.2.3-.2.5 0 1l2.3 3a.4.4 0 00.3.2h1.6a.3.3 0 00.3-.1l-.2-.6zm6.9-6l1.4 1.8.8 1.2-.8 1.2-1.4 1.8-.2.6a.3.3 0 00.3.2h1.6a.4.4 0 00.3-.2l2.3-3.2c.2-.3.3-.5 0-1l-2.3-3a.4.4 0 00-.3-.2h-1.6a.3.3 0 00-.3.2l.2.5zm-.7-.8h-1.3a.5.5 0 00-.5.3L49.5 57l-.2.4c0 .1 0 .3.3.3H51a.5.5 0 00.5-.2l3.7-7c.1-.2 0-.4-.2-.4z" fill="#fff"/></svg>