<svg width="41" height="40" viewBox="0 0 41 40" fill="none" xmlns="http://www.w3.org/2000/svg">
<path d="M0.5 8C0.5 3.58172 4.08172 0 8.5 0H32.5C36.9183 0 40.5 3.58172 40.5 8V32C40.5 36.4183 36.9183 40 32.5 40H8.5C4.08172 40 0.5 36.4183 0.5 32V8Z" fill="#F7F7F8"/>
<path d="M30.7821 7.37423L33.4316 8.55767C33.9926 8.80826 34.1971 9.50075 33.8621 10.0159L20.2779 30.9072C19.9195 31.4585 19.1356 31.5197 18.6959 31.0307L7.33592 18.3949C6.90741 17.9183 7.03161 17.1672 7.59075 16.8539L9.457 15.8083C9.85431 15.5856 10.3519 15.6596 10.6672 15.9881L19.0612 24.7326L26.401 13.3953L29.4996 7.80266C29.7511 7.34864 30.3082 7.16255 30.7821 7.37423Z" fill="#0982FF"/>
</svg>
