<svg width="40" height="40" viewBox="0 0 40 40" fill="none" xmlns="http://www.w3.org/2000/svg">
<path d="M0 8C0 3.58172 3.58172 0 8 0H32C36.4183 0 40 3.58172 40 8V32C40 36.4183 36.4183 40 32 40H8C3.58172 40 0 36.4183 0 32V8Z" fill="#F7F7F8"/>
<path d="M18 8V14.8767L12.5108 11.6117C12.0422 11.3329 11.4366 11.481 11.1495 11.9446L9.86103 14.0248C9.56977 14.495 9.71557 15.1123 10.1864 15.4026L16 18.9863L8.82397 24.2086C8.37145 24.5379 8.27728 25.1745 8.61509 25.6207L9.76358 27.1378C10.0834 27.5603 10.6773 27.6599 11.1175 27.365L18 22.7534V27.2055V31C18 31.5523 18.4477 32 19 32H21.5431C22.1413 32 22.6057 31.4782 22.5363 30.884L21.6667 23.4384L27.8381 26.7596C28.3036 27.0101 28.8838 26.855 29.1621 26.4056L30.4971 24.2503C30.7785 23.7959 30.653 23.2007 30.2121 22.8987L24 18.6438L30.0845 14.7741C30.5776 14.4605 30.6978 13.7926 30.3451 13.3267L29.223 11.8444C28.9087 11.4292 28.3284 11.3247 27.889 11.6042L21.6667 15.5616V11.1096V8C21.6667 7.44772 21.219 7 20.6667 7H19C18.4477 7 18 7.44772 18 8Z" fill="#0982FF"/>
</svg>
