<svg width="72" height="72" fill="none" xmlns="http://www.w3.org/2000/svg"><rect width="72" height="72" rx="12" fill="#F7F7F8"/><path d="M38.6 50.9h24c1.7 0 2.2-.4 2.2-2V23.2c0-1.7-.4-2-2-2H9.1c-1.6 0-2 .4-2 2v25.6c0 1.6.5 2 2.1 2h30.6" fill="#fff"/><path d="M38.6 52.1H64l1-.5.5-.6.4-1 .1-1.2V23.3l-.1-1.3c0-.3-.2-.6-.4-1l-.6-.5c-.4-.2-.7-.4-1-.4l-1.2-.1H9.2l-1.2.1-1 .4c-.4.4-.7.8-.8 1.3a5 5 0 00-.2 1.4V49l.1 1.2c.1.4.2.7.5 1 .3.4.8.7 1.2.8.5.2 1 .2 1.5.2h30.6a1.2 1.2 0 100-2.4H9.3a3 3 0 01-.7-.1h-.1v.1-.1.1-.1.1-.1.1-27.2l-.1-.1v.1h.1l-.1-.1v.1-.1.1-.1.1h55.2l.1-.1h-.1v.1l.1-.1h-.1.1-.1.1-.1v27.3-.1.1-.1h-25c-.7 0-1.2.6-1.2 1.3 0 .7.5 1.2 1.2 1.2z" fill="#000"/><path d="M12.6 46.7c-1 0-1.2-.2-1.2-1.3v-2.8c0-1 .1-1.2 1.2-1.2H42c1 0 1.2.2 1.2 1.2v2.9c0 1-.2 1.1-1.2 1.1H12.6zm42.6-21.2h3.9c.8 0 1 .2 1 1v4.4c0 .8-.2 1-1 1h-5.7c-.7 0-.9-.2-1-1 0-1.3 0-1.3-1-1.4H49c-.6 0-.8-.3-.9-.8v-2.4c0-.6.4-.8 1-.8h6.2zm-3.3 8.3h8c.8 0 1 .2 1 1v2.9c0 .6-.3.9-1 .9H47.3c-.6 0-.9-.3-.8-1v-2.9c0-.6.2-.9.8-.9H52zm-38.3 0h1.6c.6 0 .8.2.8.7v3.3c0 .6-.3.8-.8.8H12c-.6 0-.8-.3-.8-.8v-3.2c0-.6.3-.9.8-.8h1.6zm8.9 0H24c.5 0 .8.2.8.7v3.3c0 .6-.3.8-.8.8h-3.2c-.6 0-.9-.3-.9-.8v-3.2c0-.6.3-.9 1-.8h1.5zm10.1 0h1.6c.5 0 .8.2.8.7v3.3c0 .6-.3.8-.8.8H31c-.6 0-.9-.3-.9-.8v-3.2c0-.6.3-.9 1-.8h1.5zm-19-8.3h1.6c.6 0 .8.3.8.8v3.3c0 .6-.3.8-.8.8H12c-.6 0-.8-.3-.8-.8v-3.2c0-.6.3-.9.8-.9h1.6zm10 0h1.6c.5 0 .8.3.8.8v3.3c0 .6-.3.8-.8.8h-3.3c-.5 0-.8-.3-.8-.8v-3.2c0-.6.3-.9.9-.9h1.6zm9 0h1.6c.5 0 .8.3.8.8v3.3c0 .6-.3.8-.8.8H31c-.6 0-.9-.3-.9-.8v-3.2c0-.6.3-.9 1-.9h1.5zm8.2 8.3h1.7c.5 0 .8.2.8.7v3.3c0 .6-.3.8-.8.8h-3.3c-.6 0-.8-.3-.8-.8v-3.2c0-.6.3-.9.9-.8h1.5zm0-8.3h1.7c.5 0 .8.3.8.8v3.3c0 .6-.3.8-.8.8h-3.3c-.6 0-.8-.3-.8-.8v-3.2c0-.6.3-.9.9-.9h1.5zm8.5 15.8h1.6c.5 0 .8.2.8.8v3.3c0 .5-.3.8-.8.8h-3.2c-.6 0-.9-.3-.9-.9v-3.2c0-.6.3-.8 1-.8h1.5zm8.9 0h1.6c.5 0 .8.2.8.8v3.3c0 .5-.3.8-.8.8h-3.3c-.5 0-.8-.3-.8-.9v-3.2c0-.6.3-.8 1-.8h1.5z" fill="#005CFF"/></svg>