<svg width="72" height="72" fill="none" xmlns="http://www.w3.org/2000/svg"><g clip-path="url(#a)"><rect width="72" height="72" rx="12" fill="#F7F7F8"/><path d="M35.4 49.1h10.4a2.8 2.8 0 012.6 2l.5 1.8c.8 3 1.8 5.9 4.6 5.9 3.7 0 3.5-5 3.5-6.9V38.6L56.4 15a2.1 2.1 0 00-2-1.9H22.9a2.3 2.3 0 00-1.6 2v29" fill="#fff"/><path d="M35.4 50.4l10.4-.1v-1.2 1.2a1.5 1.5 0 011.5 1.1l.4 1.8c.4 1.6 1 3 1.7 4.5.4.6 1 1.2 1.7 1.6.7.5 1.5.7 2.4.6a4.2 4.2 0 004-2.5c.3-.8.6-1.7.7-2.6v-2.9a926.4 926.4 0 00-.7-38c-.2-.5-.6-1-1.1-1.3-.6-.4-1.2-.6-2-.6H23l-.6.1a3 3 0 00-.8.5l-1 1c-.2.5-.4 1.1-.4 1.7v28.4a1.2 1.2 0 102.5 0V15l.4-.4.2-.2-.3-.6v.7h.3l-.3-.7v.7h31.6a.9.9 0 01.6.3l.2.2h.1-.1.1-.1l.1 9.4.3 14.2v13.9a11 11 0 01-.4 3.5c-.1.4-.4.8-.7 1.1-.3.3-.7.4-1.2.4a2 2 0 01-1-.3c-.7-.4-1.1-1-1.4-1.7l-1-3c0-.6-.3-1.3-.5-1.9a4 4 0 00-3.8-2.8H35.4a1.2 1.2 0 100 2.6z" fill="#000"/><path d="M49.3 19.1H28a2.5 2.5 0 00-2.4 2.5v11.2c0 1.3 1 2.4 2.4 2.4h21.4c1.4 0 2.5-1 2.5-2.4V21.6c0-1.4-1.1-2.5-2.5-2.5zm.6 23.5H37.3a1.4 1.4 0 110-2.8H50a1.4 1.4 0 010 2.8z" fill="#005CFF"/><path d="M34 31.2l-1.7-2.4-1.1-1.6 1-1.6 1.8-2.4V23c.2-.2.3-.5.3-.7a.4.4 0 00-.4-.3h-2a.6.6 0 00-.6.2l-3 4.3c-.3.4-.3.7.1 1.3a288.1 288.1 0 003.2 4.3h2.3c.3 0 .4-.1.4-.2 0-.3-.1-.5-.3-.7zm9.2-8l1.8 2.4 1.1 1.6-1.1 1.6-1.8 2.4v.1l-.3.7a.3.3 0 00.4.3h2.2a.6.6 0 00.4-.2l3-4.3c.3-.4.4-.7 0-1.3l-3-4.2a.6.6 0 00-.4-.2h-2.2a.4.4 0 00-.4.3l.3.7zm-.9-1.2h-1.8a.6.6 0 00-.7.5c-1 1.6-4 7.3-4.8 8.8l-.2.7s0 .3.4.3H37a.7.7 0 00.6-.3l5-9.4c.1-.2.1-.5-.2-.5zM53 54.3c-3 0-4.4-2.1-4.5-6 0-.4-.4-.7-.8-.7-11.4 0-21 .1-31.5-.2a.8.8 0 00-.8.6c-.7 4.1 1.8 9.6 6.2 10.6 1.5.3 30.3.1 32.5.1" fill="#fff"/><path d="M53 53.1c-.5 0-1 0-1.4-.3-.6-.3-1-.8-1.3-1.4-.4-1-.6-2.1-.6-3.2 0-.3 0-.6-.2-.9a2 2 0 00-1.8-1H37.1c-7.1 0-13.8 0-21-.2a2 2 0 00-1.2.4 1.9 1.9 0 00-.8 1.3l-.1 1.5c0 2.3.7 4.5 1.9 6.4a10 10 0 002.3 2.6 8 8 0 003.5 1.5l1.9.1 12.3.1H54a1.2 1.2 0 100-2.5H22l-.1.4v-.5.5-.5c-.7-.1-1.5-.5-2.1-1a8 8 0 01-2.4-3.1 10 10 0 01-.8-5.1l-.6-.1.5.4.1-.3-.6-.1.5.4-.3-.2.2.3.1-.1-.3-.2.2.3-.2-.4v.4h.2l-.2-.5V48v.7-.7.7c7.1.2 13.9.3 21 .3h10.6v-.3l-.2.2.2.1v-.3l-.2.2.3-.4-.4.3.1.1.3-.4-.4.3.6-.4h-.7v.4l.7-.4h-.7c-.1 1.8.4 3.6 1.3 5.2.5.7 1.2 1.2 2 1.6.7.3 1.6.5 2.4.5a1.2 1.2 0 100-2.5z" fill="#000"/></g><defs><clipPath id="a"><rect width="72" height="72" rx="12" fill="#fff"/></clipPath></defs></svg>