<svg width="72" height="72" fill="none" xmlns="http://www.w3.org/2000/svg"><rect width="72" height="72" rx="8" fill="#F7F7F8"/><path d="M60.8 21.4l-8.2 2.5c-1.2.3-2.4 1.5-2 2.8l6 17.5c.3.6 1.7 1 2.7.5l2.8-1.5V22c0-.5-.8-.6-1.3-.5z" fill="#005CFF"/><path d="M54 41.7l-2.8 1.5c-3.5-3.9-7.6-6.8-11.4-10l-2.2-2a1.4 1.4 0 00-1.5-.4c-1.2.4-2.3.7-3.4 1.2-.4.2-.8.5-1 1a3.7 3.7 0 01-3.4 1.4c-1.2 0-1.6-.6-1.1-1.7.3-1 .7-1.8 1.3-2.6 1.2-1.7 2.8-3.1 4.6-4.2a5.5 5.5 0 015-.6l11.7 4c.3 0 .3-.4.3-.4l-.7-1.8c0-.2-.2-.4-.4-.5l-9-3.1c-3.2-1.2-6.1-1.1-8.9.9-.3.2-.7.4-1.2.4l-8 1a.6.6 0 00-.5.3L21 28s0 .3.2.3l6.1-.8c.1 0 .4-.1.4 0l-1 1.3-1.7 3.7c-.7 2.1.3 3.6 2.4 4.2a5.3 5.3 0 005.4-1.5c1-1 2.2-1.3 3.3-1.8a.6.6 0 01.6 0l10.6 9a15.7 15.7 0 012.6 3.2 1.4 1.4 0 01-.8 1.7 1 1 0 01-1.4-.1L42 41.5l-1.2-1.1a.9.9 0 00-1.3 0 1 1 0 00-.2 1.4l1.5 1.7 4.8 5c.5.4.3.7-.1 1a1.8 1.8 0 01-2.6 0l-5.4-5.3c-.4-.5-.9-.8-1.5-.3s-.7 1 0 1.7l4 4.2.9 1c.3.2.3.5 0 .8a1.7 1.7 0 01-2.7.2l-5.2-5-.6-.6a.9.9 0 00-1.3.1 1 1 0 00-.1 1.4l1 1.2 4 4c-1.4.1-2.7-.3-3.7-1L21 43.2l-3.8-3c-.3-.2-.5 0-.5 0l-.5 1.8a.5.5 0 00.1.4l8.1 6.5c2.3 1.8 4.7 3.6 7.1 5.2 1.9 1.2 4 1.7 6.2.6h.7a4.2 4.2 0 004.3-2 1 1 0 011-.5 4.6 4.6 0 004-2c.2-.3.5-.4.7-.5a3.8 3.8 0 003.5-3.8 1 1 0 01.3-.7l2.6-1.4a.4.4 0 00.2-.4l-.6-1.6a.4.4 0 00-.4-.1z" fill="#000"/><path d="M20.6 26c.3-1-1.1-2.2-2.2-2.5l-8-2.4c-.8-.3-1.3 0-1.4 1V40c0 2.8 0 2.8 2.6 3.9a2.9 2.9 0 003.7-1l5.3-17z" fill="#005CFF"/></svg>