<svg width="72" height="72" fill="none" xmlns="http://www.w3.org/2000/svg"><rect width="72" height="72" rx="8" fill="#F7F7F8"/><path d="M49.2 37.2h-7c-1.2 0-2.2 1-2.2 2.2v2.7c0 1.2 1 2.3 2.2 2.3h7c1.2 0 2.2-1 2.2-2.3v-2.7c0-1.2-1-2.2-2.2-2.2z" fill="#fff"/><path d="M49.2 44.4v-1.1h-7a1.1 1.1 0 01-1.1-1.2v-2.6a1.1 1.1 0 01.3-.8 1 1 0 01.8-.3h7a1.1 1.1 0 011 1.1v2.6a1.1 1.1 0 01-.3.8c-.2.2-.5.4-.8.4v2.2a3.4 3.4 0 003.4-3.4v-2.6a3.4 3.4 0 00-3.4-3.4h-6.9a3.4 3.4 0 00-3.4 3.4v2.6a3.4 3.4 0 003.4 3.4h7v-1.1z" fill="#000"/><path d="M12.1 22.9v30c0 1 .3 1.9 1 2.6a3 3 0 002.3 1.2h41.2a3 3 0 002.4-1.2c.6-.7.9-1.6.9-2.6V27.3a1.1 1.1 0 10-2.3 0v25.6c0 .4-.1.9-.4 1.2a.8.8 0 01-.6.4H15.4a.8.8 0 01-.6-.4c-.3-.3-.4-.8-.4-1.2V23a1.1 1.1 0 10-2.3 0z" fill="#000"/><path d="M21 24.6l39-.2v-7.1a2.3 2.3 0 00-2.3-2.3H14.3a2.3 2.3 0 00-2.3 2.3v7.3h9z" fill="#005CFF"/><path d="M21.1 22.2a2.1 2.1 0 100-4.3 2.1 2.1 0 000 4.3zm7.6 0a2.1 2.1 0 100-4.3 2.1 2.1 0 000 4.3z" fill="#fff"/><path d="M40 50.7h8.5a1.1 1.1 0 000-2.3H40a1.1 1.1 0 000 2.3zm-7.4-1.2v-1.1H21.5a1.1 1.1 0 01-1.2-1.1V31.7a1.1 1.1 0 01.4-.8c.2-.2.5-.4.8-.4h11.1a1.1 1.1 0 011 .7l.2.5v15.6a1.1 1.1 0 01-1.2 1v2.4a3.4 3.4 0 003.4-3.4V31.7a3.4 3.4 0 00-3.4-3.4H21.5a3.4 3.4 0 00-3.4 3.4v15.6a3.4 3.4 0 003.4 3.4h11.1v-1.2z" fill="#000"/></svg>